<mxfile host="Electron" agent="Mozilla/5.0 (Windows NT 10.0; Win64; x64) AppleWebKit/537.36 (KHTML, like Gecko) draw.io/26.2.15 Chrome/134.0.6998.205 Electron/35.2.1 Safari/537.36" version="26.2.15">
  <diagram name="Page-1" id="b520641d-4fe3-3701-9064-5fc419738815">
    <mxGraphModel dx="2381" dy="660" grid="1" gridSize="10" guides="1" tooltips="1" connect="1" arrows="1" fold="1" page="1" pageScale="1" pageWidth="1100" pageHeight="850" background="none" math="0" shadow="0">
      <root>
        <mxCell id="0" />
        <mxCell id="1" parent="0" />
        <mxCell id="21ea969265ad0168-6" value="User" style="swimlane;html=1;fontStyle=1;childLayout=stackLayout;horizontal=1;startSize=26;fillColor=#e0e0e0;horizontalStack=0;resizeParent=1;resizeLast=0;collapsible=1;marginBottom=0;swimlaneFillColor=#ffffff;align=center;rounded=1;shadow=0;comic=0;labelBackgroundColor=none;strokeWidth=1;fontFamily=Verdana;fontSize=12;fontColor=#000000;" parent="1" vertex="1">
          <mxGeometry x="160" y="29" width="160" height="182" as="geometry" />
        </mxCell>
        <mxCell id="21ea969265ad0168-7" value="+userID: String" style="text;html=1;strokeColor=#6c8ebf;fillColor=#dae8fc;spacingLeft=4;spacingRight=4;whiteSpace=wrap;overflow=hidden;rotatable=0;points=[[0,0.5],[1,0.5]];portConstraint=eastwest;fontStyle=2;fontColor=#000000;" parent="21ea969265ad0168-6" vertex="1">
          <mxGeometry y="26" width="160" height="26" as="geometry" />
        </mxCell>
        <mxCell id="21ea969265ad0168-9" value="+email: String" style="text;html=1;strokeColor=#6c8ebf;fillColor=#dae8fc;spacingLeft=4;spacingRight=4;whiteSpace=wrap;overflow=hidden;rotatable=0;points=[[0,0.5],[1,0.5]];portConstraint=eastwest;fontStyle=2;fontColor=#000000;" parent="21ea969265ad0168-6" vertex="1">
          <mxGeometry y="52" width="160" height="26" as="geometry" />
        </mxCell>
        <mxCell id="21ea969265ad0168-8" value="-password: String" style="text;html=1;strokeColor=#b85450;fillColor=#f8cecc;spacingLeft=4;spacingRight=4;whiteSpace=wrap;overflow=hidden;rotatable=0;points=[[0,0.5],[1,0.5]];portConstraint=eastwest;fontStyle=2;fontColor=#000000;" parent="21ea969265ad0168-6" vertex="1">
          <mxGeometry y="78" width="160" height="26" as="geometry" />
        </mxCell>
        <mxCell id="rjfl3JfHMgW5dcPr067E-36" value="-dateOfBirth: Date" style="text;html=1;strokeColor=#b85450;fillColor=#f8cecc;spacingLeft=4;spacingRight=4;whiteSpace=wrap;overflow=hidden;rotatable=0;points=[[0,0.5],[1,0.5]];portConstraint=eastwest;fontStyle=2;fontColor=#000000;" parent="21ea969265ad0168-6" vertex="1">
          <mxGeometry y="104" width="160" height="26" as="geometry" />
        </mxCell>
        <mxCell id="rjfl3JfHMgW5dcPr067E-35" value="login()" style="text;html=1;strokeColor=none;fillColor=none;spacingLeft=4;spacingRight=4;whiteSpace=wrap;overflow=hidden;rotatable=0;points=[[0,0.5],[1,0.5]];portConstraint=eastwest;fontStyle=1;fontColor=#000000;" parent="21ea969265ad0168-6" vertex="1">
          <mxGeometry y="130" width="160" height="26" as="geometry" />
        </mxCell>
        <mxCell id="rjfl3JfHMgW5dcPr067E-34" value="logout()" style="text;html=1;strokeColor=none;fillColor=none;spacingLeft=4;spacingRight=4;whiteSpace=wrap;overflow=hidden;rotatable=0;points=[[0,0.5],[1,0.5]];portConstraint=eastwest;fontStyle=1;fontColor=#000000;" parent="21ea969265ad0168-6" vertex="1">
          <mxGeometry y="156" width="160" height="26" as="geometry" />
        </mxCell>
        <mxCell id="21ea969265ad0168-10" value="Admin" style="swimlane;html=1;fontStyle=1;childLayout=stackLayout;horizontal=1;startSize=26;fillColor=#e0e0e0;horizontalStack=0;resizeParent=1;resizeLast=0;collapsible=1;marginBottom=0;swimlaneFillColor=#ffffff;align=center;rounded=1;shadow=0;comic=0;labelBackgroundColor=none;strokeWidth=1;fontFamily=Verdana;fontSize=12;fontColor=#000000;" parent="1" vertex="1">
          <mxGeometry x="370" y="89" width="190" height="234" as="geometry" />
        </mxCell>
        <mxCell id="21ea969265ad0168-11" value="+adminID: String" style="text;html=1;strokeColor=#6c8ebf;fillColor=#dae8fc;spacingLeft=4;spacingRight=4;whiteSpace=wrap;overflow=hidden;rotatable=0;points=[[0,0.5],[1,0.5]];portConstraint=eastwest;fontStyle=2;fontColor=#000000;" parent="21ea969265ad0168-10" vertex="1">
          <mxGeometry y="26" width="190" height="26" as="geometry" />
        </mxCell>
        <mxCell id="rjfl3JfHMgW5dcPr067E-107" value="-&lt;span style=&quot;font-style: normal;&quot;&gt;admin: Boolean&lt;/span&gt;" style="text;html=1;strokeColor=#b85450;fillColor=#f8cecc;spacingLeft=4;spacingRight=4;whiteSpace=wrap;overflow=hidden;rotatable=0;points=[[0,0.5],[1,0.5]];portConstraint=eastwest;fontStyle=2;fontColor=#000000;" parent="21ea969265ad0168-10" vertex="1">
          <mxGeometry y="52" width="190" height="26" as="geometry" />
        </mxCell>
        <mxCell id="rjfl3JfHMgW5dcPr067E-38" value="accessEmployeeDemographics()" style="text;html=1;strokeColor=none;fillColor=none;spacingLeft=4;spacingRight=4;whiteSpace=wrap;overflow=hidden;rotatable=0;points=[[0,0.5],[1,0.5]];portConstraint=eastwest;fontStyle=1;fontColor=#000000;" parent="21ea969265ad0168-10" vertex="1">
          <mxGeometry y="78" width="190" height="26" as="geometry" />
        </mxCell>
        <mxCell id="rjfl3JfHMgW5dcPr067E-37" value="managePayroll()" style="text;html=1;strokeColor=none;fillColor=none;spacingLeft=4;spacingRight=4;whiteSpace=wrap;overflow=hidden;rotatable=0;points=[[0,0.5],[1,0.5]];portConstraint=eastwest;fontStyle=1;fontColor=#000000;" parent="21ea969265ad0168-10" vertex="1">
          <mxGeometry y="104" width="190" height="26" as="geometry" />
        </mxCell>
        <mxCell id="21ea969265ad0168-12" value="addEditDeleteEmployee()" style="text;html=1;strokeColor=none;fillColor=none;spacingLeft=4;spacingRight=4;whiteSpace=wrap;overflow=hidden;rotatable=0;points=[[0,0.5],[1,0.5]];portConstraint=eastwest;fontStyle=1;fontColor=#000000;" parent="21ea969265ad0168-10" vertex="1">
          <mxGeometry y="130" width="190" height="26" as="geometry" />
        </mxCell>
        <mxCell id="21ea969265ad0168-52" value="searchEmployee()" style="text;html=1;strokeColor=none;fillColor=none;spacingLeft=4;spacingRight=4;whiteSpace=wrap;overflow=hidden;rotatable=0;points=[[0,0.5],[1,0.5]];portConstraint=eastwest;fontStyle=1;fontColor=#000000;" parent="21ea969265ad0168-10" vertex="1">
          <mxGeometry y="156" width="190" height="26" as="geometry" />
        </mxCell>
        <mxCell id="21ea969265ad0168-13" value="generateReports()" style="text;html=1;strokeColor=none;fillColor=none;spacingLeft=4;spacingRight=4;whiteSpace=wrap;overflow=hidden;rotatable=0;points=[[0,0.5],[1,0.5]];portConstraint=eastwest;fontStyle=1;fontColor=#000000;" parent="21ea969265ad0168-10" vertex="1">
          <mxGeometry y="182" width="190" height="26" as="geometry" />
        </mxCell>
        <mxCell id="rjfl3JfHMgW5dcPr067E-46" value="viewAppInfo()" style="text;html=1;strokeColor=none;fillColor=none;spacingLeft=4;spacingRight=4;whiteSpace=wrap;overflow=hidden;rotatable=0;points=[[0,0.5],[1,0.5]];portConstraint=eastwest;fontStyle=1;fontColor=#000000;" parent="21ea969265ad0168-10" vertex="1">
          <mxGeometry y="208" width="190" height="26" as="geometry" />
        </mxCell>
        <mxCell id="21ea969265ad0168-14" value="Payroll" style="swimlane;html=1;fontStyle=1;childLayout=stackLayout;horizontal=1;startSize=26;fillColor=#e0e0e0;horizontalStack=0;resizeParent=1;resizeLast=0;collapsible=1;marginBottom=0;swimlaneFillColor=#ffffff;align=center;rounded=1;shadow=0;comic=0;labelBackgroundColor=none;strokeWidth=1;fontFamily=Verdana;fontSize=12;fontColor=#000000;" parent="1" vertex="1">
          <mxGeometry x="-140" y="30" width="250" height="420" as="geometry" />
        </mxCell>
        <mxCell id="21ea969265ad0168-15" value="+payrollID: String" style="text;html=1;strokeColor=#6c8ebf;fillColor=#dae8fc;spacingLeft=4;spacingRight=4;whiteSpace=wrap;overflow=hidden;rotatable=0;points=[[0,0.5],[1,0.5]];portConstraint=eastwest;fontStyle=2;fontColor=#000000;" parent="21ea969265ad0168-14" vertex="1">
          <mxGeometry y="26" width="250" height="26" as="geometry" />
        </mxCell>
        <mxCell id="21ea969265ad0168-16" value="+baseSalary: Double" style="text;html=1;strokeColor=#6c8ebf;fillColor=#dae8fc;spacingLeft=4;spacingRight=4;whiteSpace=wrap;overflow=hidden;rotatable=0;points=[[0,0.5],[1,0.5]];portConstraint=eastwest;fontStyle=2;fontColor=#000000;" parent="21ea969265ad0168-14" vertex="1">
          <mxGeometry y="52" width="250" height="26" as="geometry" />
        </mxCell>
        <mxCell id="21ea969265ad0168-17" value="+medicalCoverage: Enum (SINGLE/FAMILY)" style="text;html=1;strokeColor=#6c8ebf;fillColor=#dae8fc;spacingLeft=4;spacingRight=4;whiteSpace=wrap;overflow=hidden;rotatable=0;points=[[0,0.5],[1,0.5]];portConstraint=eastwest;fontStyle=2;fontColor=#000000;" parent="21ea969265ad0168-14" vertex="1">
          <mxGeometry y="78" width="250" height="26" as="geometry" />
        </mxCell>
        <mxCell id="rjfl3JfHMgW5dcPr067E-61" value="+numDependents: Integer" style="text;html=1;strokeColor=#6c8ebf;fillColor=#dae8fc;spacingLeft=4;spacingRight=4;whiteSpace=wrap;overflow=hidden;rotatable=0;points=[[0,0.5],[1,0.5]];portConstraint=eastwest;fontStyle=2;fontColor=#000000;" parent="21ea969265ad0168-14" vertex="1">
          <mxGeometry y="104" width="250" height="26" as="geometry" />
        </mxCell>
        <mxCell id="rjfl3JfHMgW5dcPr067E-62" value="-grossPay: Double" style="text;html=1;strokeColor=#b85450;fillColor=#f8cecc;spacingLeft=4;spacingRight=4;whiteSpace=wrap;overflow=hidden;rotatable=0;points=[[0,0.5],[1,0.5]];portConstraint=eastwest;fontStyle=2;fontColor=#000000;" parent="21ea969265ad0168-14" vertex="1">
          <mxGeometry y="130" width="250" height="26" as="geometry" />
        </mxCell>
        <mxCell id="rjfl3JfHMgW5dcPr067E-63" value="-netPay: Double" style="text;html=1;strokeColor=#b85450;fillColor=#f8cecc;spacingLeft=4;spacingRight=4;whiteSpace=wrap;overflow=hidden;rotatable=0;points=[[0,0.5],[1,0.5]];portConstraint=eastwest;fontStyle=2;fontColor=#000000;" parent="21ea969265ad0168-14" vertex="1">
          <mxGeometry y="156" width="250" height="26" as="geometry" />
        </mxCell>
        <mxCell id="rjfl3JfHMgW5dcPr067E-64" value="-stateTax: Double" style="text;html=1;strokeColor=#b85450;fillColor=#f8cecc;spacingLeft=4;spacingRight=4;whiteSpace=wrap;overflow=hidden;rotatable=0;points=[[0,0.5],[1,0.5]];portConstraint=eastwest;fontStyle=2;fontColor=#000000;" parent="21ea969265ad0168-14" vertex="1">
          <mxGeometry y="182" width="250" height="26" as="geometry" />
        </mxCell>
        <mxCell id="rjfl3JfHMgW5dcPr067E-65" value="-federalTax: Double" style="text;html=1;strokeColor=#b85450;fillColor=#f8cecc;spacingLeft=4;spacingRight=4;whiteSpace=wrap;overflow=hidden;rotatable=0;points=[[0,0.5],[1,0.5]];portConstraint=eastwest;fontStyle=2;fontColor=#000000;" parent="21ea969265ad0168-14" vertex="1">
          <mxGeometry y="208" width="250" height="26" as="geometry" />
        </mxCell>
        <mxCell id="rjfl3JfHMgW5dcPr067E-66" value="-socialSecurityTax: Double" style="text;html=1;strokeColor=#b85450;fillColor=#f8cecc;spacingLeft=4;spacingRight=4;whiteSpace=wrap;overflow=hidden;rotatable=0;points=[[0,0.5],[1,0.5]];portConstraint=eastwest;fontStyle=2;fontColor=#000000;" parent="21ea969265ad0168-14" vertex="1">
          <mxGeometry y="234" width="250" height="26" as="geometry" />
        </mxCell>
        <mxCell id="rjfl3JfHMgW5dcPr067E-67" value="-medicareTax: Double" style="text;html=1;strokeColor=#b85450;fillColor=#f8cecc;spacingLeft=4;spacingRight=4;whiteSpace=wrap;overflow=hidden;rotatable=0;points=[[0,0.5],[1,0.5]];portConstraint=eastwest;fontStyle=2;fontColor=#000000;" parent="21ea969265ad0168-14" vertex="1">
          <mxGeometry y="260" width="250" height="26" as="geometry" />
        </mxCell>
        <mxCell id="rjfl3JfHMgW5dcPr067E-68" value="-isLocked: Boolean" style="text;html=1;strokeColor=#b85450;fillColor=#f8cecc;spacingLeft=4;spacingRight=4;whiteSpace=wrap;overflow=hidden;rotatable=0;points=[[0,0.5],[1,0.5]];portConstraint=eastwest;fontStyle=2;fontColor=#000000;" parent="21ea969265ad0168-14" vertex="1">
          <mxGeometry y="286" width="250" height="26" as="geometry" />
        </mxCell>
        <mxCell id="rjfl3JfHMgW5dcPr067E-69" value="calculateGrossPay()" style="text;html=1;strokeColor=none;fillColor=none;spacingLeft=4;spacingRight=4;whiteSpace=wrap;overflow=hidden;rotatable=0;points=[[0,0.5],[1,0.5]];portConstraint=eastwest;fontStyle=1;fontColor=#000000;" parent="21ea969265ad0168-14" vertex="1">
          <mxGeometry y="312" width="250" height="26" as="geometry" />
        </mxCell>
        <mxCell id="rjfl3JfHMgW5dcPr067E-70" value="calculateNetPay()" style="text;html=1;strokeColor=none;fillColor=none;spacingLeft=4;spacingRight=4;whiteSpace=wrap;overflow=hidden;rotatable=0;points=[[0,0.5],[1,0.5]];portConstraint=eastwest;fontStyle=1;fontColor=#000000;" parent="21ea969265ad0168-14" vertex="1">
          <mxGeometry y="338" width="250" height="26" as="geometry" />
        </mxCell>
        <mxCell id="rjfl3JfHMgW5dcPr067E-71" value="lockPayroll()" style="text;html=1;strokeColor=none;fillColor=none;spacingLeft=4;spacingRight=4;whiteSpace=wrap;overflow=hidden;rotatable=0;points=[[0,0.5],[1,0.5]];portConstraint=eastwest;fontStyle=1;fontColor=#000000;" parent="21ea969265ad0168-14" vertex="1">
          <mxGeometry y="364" width="250" height="26" as="geometry" />
        </mxCell>
        <mxCell id="rjfl3JfHMgW5dcPr067E-72" value="generateHRReport()" style="text;html=1;strokeColor=none;fillColor=none;spacingLeft=4;spacingRight=4;whiteSpace=wrap;overflow=hidden;rotatable=0;points=[[0,0.5],[1,0.5]];portConstraint=eastwest;fontStyle=1;fontColor=#000000;" parent="21ea969265ad0168-14" vertex="1">
          <mxGeometry y="390" width="250" height="26" as="geometry" />
        </mxCell>
        <mxCell id="21ea969265ad0168-18" value="TimeEntry" style="swimlane;html=1;fontStyle=1;childLayout=stackLayout;horizontal=1;startSize=26;fillColor=#e0e0e0;horizontalStack=0;resizeParent=1;resizeLast=0;collapsible=1;marginBottom=0;swimlaneFillColor=#ffffff;align=center;rounded=1;shadow=0;comic=0;labelBackgroundColor=none;strokeWidth=1;fontFamily=Verdana;fontSize=12;fontColor=#000000;" parent="1" vertex="1">
          <mxGeometry x="160" y="240" width="160" height="234" as="geometry" />
        </mxCell>
        <mxCell id="21ea969265ad0168-19" value="+entryID: String" style="text;html=1;strokeColor=#6c8ebf;fillColor=#dae8fc;spacingLeft=4;spacingRight=4;whiteSpace=wrap;overflow=hidden;rotatable=0;points=[[0,0.5],[1,0.5]];portConstraint=eastwest;fontStyle=2;fontColor=#000000;" parent="21ea969265ad0168-18" vertex="1">
          <mxGeometry y="26" width="160" height="26" as="geometry" />
        </mxCell>
        <mxCell id="21ea969265ad0168-20" value="+date: Date" style="text;html=1;strokeColor=#6c8ebf;fillColor=#dae8fc;spacingLeft=4;spacingRight=4;whiteSpace=wrap;overflow=hidden;rotatable=0;points=[[0,0.5],[1,0.5]];portConstraint=eastwest;fontStyle=2;fontColor=#000000;" parent="21ea969265ad0168-18" vertex="1">
          <mxGeometry y="52" width="160" height="26" as="geometry" />
        </mxCell>
        <mxCell id="21ea969265ad0168-51" value="+hoursWorked: Date" style="text;html=1;strokeColor=#6c8ebf;fillColor=#dae8fc;spacingLeft=4;spacingRight=4;whiteSpace=wrap;overflow=hidden;rotatable=0;points=[[0,0.5],[1,0.5]];portConstraint=eastwest;fontStyle=2;fontColor=#000000;" parent="21ea969265ad0168-18" vertex="1">
          <mxGeometry y="78" width="160" height="26" as="geometry" />
        </mxCell>
        <mxCell id="rjfl3JfHMgW5dcPr067E-94" value="+isPTO: Boolean" style="text;html=1;strokeColor=#6c8ebf;fillColor=#dae8fc;spacingLeft=4;spacingRight=4;whiteSpace=wrap;overflow=hidden;rotatable=0;points=[[0,0.5],[1,0.5]];portConstraint=eastwest;fontStyle=2;fontColor=#000000;" parent="21ea969265ad0168-18" vertex="1">
          <mxGeometry y="104" width="160" height="26" as="geometry" />
        </mxCell>
        <mxCell id="21ea969265ad0168-21" value="-isOvertime: Boolean" style="text;html=1;strokeColor=#b85450;fillColor=#f8cecc;spacingLeft=4;spacingRight=4;whiteSpace=wrap;overflow=hidden;rotatable=0;points=[[0,0.5],[1,0.5]];portConstraint=eastwest;fontStyle=2;fontColor=#000000;" parent="21ea969265ad0168-18" vertex="1">
          <mxGeometry y="130" width="160" height="26" as="geometry" />
        </mxCell>
        <mxCell id="rjfl3JfHMgW5dcPr067E-95" value="addTimeEntry()" style="text;html=1;strokeColor=none;fillColor=none;spacingLeft=4;spacingRight=4;whiteSpace=wrap;overflow=hidden;rotatable=0;points=[[0,0.5],[1,0.5]];portConstraint=eastwest;fontStyle=1;fontColor=#000000;" parent="21ea969265ad0168-18" vertex="1">
          <mxGeometry y="156" width="160" height="26" as="geometry" />
        </mxCell>
        <mxCell id="rjfl3JfHMgW5dcPr067E-96" value="editTimeEntry()" style="text;html=1;strokeColor=none;fillColor=none;spacingLeft=4;spacingRight=4;whiteSpace=wrap;overflow=hidden;rotatable=0;points=[[0,0.5],[1,0.5]];portConstraint=eastwest;fontStyle=1;fontColor=#000000;" parent="21ea969265ad0168-18" vertex="1">
          <mxGeometry y="182" width="160" height="26" as="geometry" />
        </mxCell>
        <mxCell id="rjfl3JfHMgW5dcPr067E-98" value="calculateOvertime()" style="text;html=1;strokeColor=none;fillColor=none;spacingLeft=4;spacingRight=4;whiteSpace=wrap;overflow=hidden;rotatable=0;points=[[0,0.5],[1,0.5]];portConstraint=eastwest;fontStyle=1;fontColor=#000000;" parent="21ea969265ad0168-18" vertex="1">
          <mxGeometry y="208" width="160" height="26" as="geometry" />
        </mxCell>
        <mxCell id="21ea969265ad0168-26" value="Login System" style="swimlane;html=1;fontStyle=1;childLayout=stackLayout;horizontal=1;startSize=26;fillColor=#e0e0e0;horizontalStack=0;resizeParent=1;resizeLast=0;collapsible=1;marginBottom=0;swimlaneFillColor=#ffffff;align=center;rounded=1;shadow=0;comic=0;labelBackgroundColor=none;strokeWidth=1;fontFamily=Verdana;fontSize=12;fontColor=#000000;" parent="1" vertex="1">
          <mxGeometry x="370" y="330" width="190" height="110" as="geometry" />
        </mxCell>
        <mxCell id="21ea969265ad0168-27" value="authenticateUser()" style="text;html=1;strokeColor=none;fillColor=none;spacingLeft=4;spacingRight=4;whiteSpace=wrap;overflow=hidden;rotatable=0;points=[[0,0.5],[1,0.5]];portConstraint=eastwest;fontStyle=1;fontColor=#000000;" parent="21ea969265ad0168-26" vertex="1">
          <mxGeometry y="26" width="190" height="26" as="geometry" />
        </mxCell>
        <mxCell id="21ea969265ad0168-28" value="generateEmployeeCredentials()" style="text;html=1;strokeColor=none;fillColor=none;spacingLeft=4;spacingRight=4;whiteSpace=wrap;overflow=hidden;rotatable=0;points=[[0,0.5],[1,0.5]];portConstraint=eastwest;fontStyle=1;fontColor=#000000;" parent="21ea969265ad0168-26" vertex="1">
          <mxGeometry y="52" width="190" height="26" as="geometry" />
        </mxCell>
        <mxCell id="21ea969265ad0168-29" value="validateUserType()" style="text;html=1;strokeColor=none;fillColor=none;spacingLeft=4;spacingRight=4;whiteSpace=wrap;overflow=hidden;rotatable=0;points=[[0,0.5],[1,0.5]];portConstraint=eastwest;fontStyle=1;fontColor=#000000;" parent="21ea969265ad0168-26" vertex="1">
          <mxGeometry y="78" width="190" height="26" as="geometry" />
        </mxCell>
        <mxCell id="rjfl3JfHMgW5dcPr067E-39" value="Employee" style="swimlane;html=1;fontStyle=1;childLayout=stackLayout;horizontal=1;startSize=26;fillColor=#e0e0e0;horizontalStack=0;resizeParent=1;resizeLast=0;collapsible=1;marginBottom=0;swimlaneFillColor=#ffffff;align=center;rounded=1;shadow=0;comic=0;labelBackgroundColor=none;strokeWidth=1;fontFamily=Verdana;fontSize=12;fontColor=#000000;" parent="1" vertex="1">
          <mxGeometry x="590" y="30" width="230" height="546" as="geometry" />
        </mxCell>
        <mxCell id="rjfl3JfHMgW5dcPr067E-40" value="+employeeID: String" style="text;html=1;strokeColor=#6c8ebf;fillColor=#dae8fc;spacingLeft=4;spacingRight=4;whiteSpace=wrap;overflow=hidden;rotatable=0;points=[[0,0.5],[1,0.5]];portConstraint=eastwest;fontStyle=2;fontColor=#000000;" parent="rjfl3JfHMgW5dcPr067E-39" vertex="1">
          <mxGeometry y="26" width="230" height="26" as="geometry" />
        </mxCell>
        <mxCell id="rjfl3JfHMgW5dcPr067E-41" value="+firstName: String" style="text;html=1;strokeColor=#6c8ebf;fillColor=#dae8fc;spacingLeft=4;spacingRight=4;whiteSpace=wrap;overflow=hidden;rotatable=0;points=[[0,0.5],[1,0.5]];portConstraint=eastwest;fontStyle=2;fontColor=#000000;" parent="rjfl3JfHMgW5dcPr067E-39" vertex="1">
          <mxGeometry y="52" width="230" height="26" as="geometry" />
        </mxCell>
        <mxCell id="rjfl3JfHMgW5dcPr067E-42" value="+lastName: String" style="text;html=1;strokeColor=#6c8ebf;fillColor=#dae8fc;spacingLeft=4;spacingRight=4;whiteSpace=wrap;overflow=hidden;rotatable=0;points=[[0,0.5],[1,0.5]];portConstraint=eastwest;fontStyle=2;fontColor=#000000;" parent="rjfl3JfHMgW5dcPr067E-39" vertex="1">
          <mxGeometry y="78" width="230" height="26" as="geometry" />
        </mxCell>
        <mxCell id="rjfl3JfHMgW5dcPr067E-43" value="+surName: String" style="text;html=1;strokeColor=#6c8ebf;fillColor=#dae8fc;spacingLeft=4;spacingRight=4;whiteSpace=wrap;overflow=hidden;rotatable=0;points=[[0,0.5],[1,0.5]];portConstraint=eastwest;fontStyle=2;fontColor=#000000;" parent="rjfl3JfHMgW5dcPr067E-39" vertex="1">
          <mxGeometry y="104" width="230" height="26" as="geometry" />
        </mxCell>
        <mxCell id="rjfl3JfHMgW5dcPr067E-44" value="+department: String" style="text;html=1;strokeColor=#6c8ebf;fillColor=#dae8fc;spacingLeft=4;spacingRight=4;whiteSpace=wrap;overflow=hidden;rotatable=0;points=[[0,0.5],[1,0.5]];portConstraint=eastwest;fontStyle=2;fontColor=#000000;" parent="rjfl3JfHMgW5dcPr067E-39" vertex="1">
          <mxGeometry y="130" width="230" height="26" as="geometry" />
        </mxCell>
        <mxCell id="rjfl3JfHMgW5dcPr067E-45" value="+jobTitle: String" style="text;html=1;strokeColor=#6c8ebf;fillColor=#dae8fc;spacingLeft=4;spacingRight=4;whiteSpace=wrap;overflow=hidden;rotatable=0;points=[[0,0.5],[1,0.5]];portConstraint=eastwest;fontStyle=2;fontColor=#000000;" parent="rjfl3JfHMgW5dcPr067E-39" vertex="1">
          <mxGeometry y="156" width="230" height="26" as="geometry" />
        </mxCell>
        <mxCell id="rjfl3JfHMgW5dcPr067E-48" value="+status: Enum (ACTIVE/TERMINATED)" style="text;html=1;strokeColor=#6c8ebf;fillColor=#dae8fc;spacingLeft=4;spacingRight=4;whiteSpace=wrap;overflow=hidden;rotatable=0;points=[[0,0.5],[1,0.5]];portConstraint=eastwest;fontStyle=2;fontColor=#000000;" parent="rjfl3JfHMgW5dcPr067E-39" vertex="1">
          <mxGeometry y="182" width="230" height="26" as="geometry" />
        </mxCell>
        <mxCell id="rjfl3JfHMgW5dcPr067E-49" value="+gender: Enum (MALE/FEMALE)" style="text;html=1;strokeColor=#6c8ebf;fillColor=#dae8fc;spacingLeft=4;spacingRight=4;whiteSpace=wrap;overflow=hidden;rotatable=0;points=[[0,0.5],[1,0.5]];portConstraint=eastwest;fontStyle=2;fontColor=#000000;" parent="rjfl3JfHMgW5dcPr067E-39" vertex="1">
          <mxGeometry y="208" width="230" height="26" as="geometry" />
        </mxCell>
        <mxCell id="rjfl3JfHMgW5dcPr067E-50" value="+payType: Enum (Salary/Hourly)" style="text;html=1;strokeColor=#6c8ebf;fillColor=#dae8fc;spacingLeft=4;spacingRight=4;whiteSpace=wrap;overflow=hidden;rotatable=0;points=[[0,0.5],[1,0.5]];portConstraint=eastwest;fontStyle=2;fontColor=#000000;" parent="rjfl3JfHMgW5dcPr067E-39" vertex="1">
          <mxGeometry y="234" width="230" height="26" as="geometry" />
        </mxCell>
        <mxCell id="rjfl3JfHMgW5dcPr067E-56" value="+dateHired: Date" style="text;html=1;strokeColor=#6c8ebf;fillColor=#dae8fc;spacingLeft=4;spacingRight=4;whiteSpace=wrap;overflow=hidden;rotatable=0;points=[[0,0.5],[1,0.5]];portConstraint=eastwest;fontStyle=2;fontColor=#000000;" parent="rjfl3JfHMgW5dcPr067E-39" vertex="1">
          <mxGeometry y="260" width="230" height="26" as="geometry" />
        </mxCell>
        <mxCell id="rjfl3JfHMgW5dcPr067E-51" value="-addresLine1: String" style="text;html=1;strokeColor=#b85450;fillColor=#f8cecc;spacingLeft=4;spacingRight=4;whiteSpace=wrap;overflow=hidden;rotatable=0;points=[[0,0.5],[1,0.5]];portConstraint=eastwest;fontStyle=2;fontColor=#000000;" parent="rjfl3JfHMgW5dcPr067E-39" vertex="1">
          <mxGeometry y="286" width="230" height="26" as="geometry" />
        </mxCell>
        <mxCell id="rjfl3JfHMgW5dcPr067E-108" value="-salary: Float" style="text;html=1;strokeColor=#b85450;fillColor=#f8cecc;spacingLeft=4;spacingRight=4;whiteSpace=wrap;overflow=hidden;rotatable=0;points=[[0,0.5],[1,0.5]];portConstraint=eastwest;fontStyle=2;fontColor=#000000;" parent="rjfl3JfHMgW5dcPr067E-39" vertex="1">
          <mxGeometry y="312" width="230" height="26" as="geometry" />
        </mxCell>
        <mxCell id="rjfl3JfHMgW5dcPr067E-52" value="-adressLine2: String" style="text;html=1;strokeColor=#b85450;fillColor=#f8cecc;spacingLeft=4;spacingRight=4;whiteSpace=wrap;overflow=hidden;rotatable=0;points=[[0,0.5],[1,0.5]];portConstraint=eastwest;fontStyle=2;fontColor=#000000;" parent="rjfl3JfHMgW5dcPr067E-39" vertex="1">
          <mxGeometry y="338" width="230" height="26" as="geometry" />
        </mxCell>
        <mxCell id="rjfl3JfHMgW5dcPr067E-53" value="-city: String" style="text;html=1;strokeColor=#b85450;fillColor=#f8cecc;spacingLeft=4;spacingRight=4;whiteSpace=wrap;overflow=hidden;rotatable=0;points=[[0,0.5],[1,0.5]];portConstraint=eastwest;fontStyle=2;fontColor=#000000;" parent="rjfl3JfHMgW5dcPr067E-39" vertex="1">
          <mxGeometry y="364" width="230" height="26" as="geometry" />
        </mxCell>
        <mxCell id="rjfl3JfHMgW5dcPr067E-54" value="-state: String" style="text;html=1;strokeColor=#b85450;fillColor=#f8cecc;spacingLeft=4;spacingRight=4;whiteSpace=wrap;overflow=hidden;rotatable=0;points=[[0,0.5],[1,0.5]];portConstraint=eastwest;fontStyle=2;fontColor=#000000;" parent="rjfl3JfHMgW5dcPr067E-39" vertex="1">
          <mxGeometry y="390" width="230" height="26" as="geometry" />
        </mxCell>
        <mxCell id="rjfl3JfHMgW5dcPr067E-55" value="-zip: String" style="text;html=1;strokeColor=#b85450;fillColor=#f8cecc;spacingLeft=4;spacingRight=4;whiteSpace=wrap;overflow=hidden;rotatable=0;points=[[0,0.5],[1,0.5]];portConstraint=eastwest;fontStyle=2;fontColor=#000000;" parent="rjfl3JfHMgW5dcPr067E-39" vertex="1">
          <mxGeometry y="416" width="230" height="26" as="geometry" />
        </mxCell>
        <mxCell id="rjfl3JfHMgW5dcPr067E-109" value="-picture: Blob" style="text;html=1;strokeColor=#b85450;fillColor=#f8cecc;spacingLeft=4;spacingRight=4;whiteSpace=wrap;overflow=hidden;rotatable=0;points=[[0,0.5],[1,0.5]];portConstraint=eastwest;fontStyle=2;fontColor=#000000;" parent="rjfl3JfHMgW5dcPr067E-39" vertex="1">
          <mxGeometry y="442" width="230" height="26" as="geometry" />
        </mxCell>
        <mxCell id="rjfl3JfHMgW5dcPr067E-57" value="enterHoursWorked()" style="text;html=1;strokeColor=none;fillColor=none;spacingLeft=4;spacingRight=4;whiteSpace=wrap;overflow=hidden;rotatable=0;points=[[0,0.5],[1,0.5]];portConstraint=eastwest;fontStyle=1;fontColor=#000000;" parent="rjfl3JfHMgW5dcPr067E-39" vertex="1">
          <mxGeometry y="468" width="230" height="26" as="geometry" />
        </mxCell>
        <mxCell id="rjfl3JfHMgW5dcPr067E-58" value="requestPTO()" style="text;html=1;strokeColor=none;fillColor=none;spacingLeft=4;spacingRight=4;whiteSpace=wrap;overflow=hidden;rotatable=0;points=[[0,0.5],[1,0.5]];portConstraint=eastwest;fontStyle=1;fontColor=#000000;" parent="rjfl3JfHMgW5dcPr067E-39" vertex="1">
          <mxGeometry y="494" width="230" height="26" as="geometry" />
        </mxCell>
        <mxCell id="rjfl3JfHMgW5dcPr067E-59" value="calculatePayCheck()" style="text;html=1;strokeColor=none;fillColor=none;spacingLeft=4;spacingRight=4;whiteSpace=wrap;overflow=hidden;rotatable=0;points=[[0,0.5],[1,0.5]];portConstraint=eastwest;fontStyle=1;fontColor=#000000;" parent="rjfl3JfHMgW5dcPr067E-39" vertex="1">
          <mxGeometry y="520" width="230" height="26" as="geometry" />
        </mxCell>
        <mxCell id="rjfl3JfHMgW5dcPr067E-105" style="edgeStyle=orthogonalEdgeStyle;rounded=0;orthogonalLoop=1;jettySize=auto;html=1;entryX=0;entryY=0.068;entryDx=0;entryDy=0;entryPerimeter=0;exitX=0.994;exitY=0.079;exitDx=0;exitDy=0;exitPerimeter=0;fontColor=#000000;" parent="1" source="21ea969265ad0168-6" target="21ea969265ad0168-10" edge="1">
          <mxGeometry relative="1" as="geometry" />
        </mxCell>
        <mxCell id="rjfl3JfHMgW5dcPr067E-106" style="edgeStyle=orthogonalEdgeStyle;rounded=0;orthogonalLoop=1;jettySize=auto;html=1;exitX=0.983;exitY=0.082;exitDx=0;exitDy=0;exitPerimeter=0;fontColor=#000000;" parent="1" source="21ea969265ad0168-6" edge="1">
          <mxGeometry relative="1" as="geometry">
            <mxPoint x="590" y="44" as="targetPoint" />
          </mxGeometry>
        </mxCell>
      </root>
    </mxGraphModel>
  </diagram>
</mxfile>
